<svg width="469" height="409" viewBox="0 0 469 409" fill="none" xmlns="http://www.w3.org/2000/svg">
                <path d="M445.106 118.388C442.695 99.6236 437.991 81.6346 428.137 65.2516C409.818 34.7936 376.905 16.3996 343.489 7.06658C315.484 -0.754421 285.332 -3.00942 257.399 5.06758C226.739 13.9326 201.012 34.3536 173.402 50.3636C153.268 62.0386 132.021 71.7046 110.3 80.0216C92.7204 86.7526 70.3774 90.5236 55.9294 103.309C47.0664 111.151 39.2694 120.205 32.5784 129.955C5.60736 169.262 -3.18264 219.486 0.984359 266.362C3.88736 299.028 12.8704 332.076 33.0204 357.949C61.2934 394.253 109.818 412.142 155.611 407.633C207.58 402.515 256.858 371.447 308.543 378.902C334.27 382.613 358.893 395.835 384.769 393.376C410.277 390.952 432.114 373.413 447.501 352.925C459.842 336.493 468.054 316.629 468.814 295.949C469.637 273.552 459.499 253.135 454.413 231.751C445.521 194.363 449.955 156.132 445.106 118.388Z" fill="#92E3A9"/>
                <path opacity="0.7" d="M445.106 118.388C442.695 99.6236 437.991 81.6346 428.137 65.2516C409.818 34.7936 376.905 16.3996 343.489 7.06658C315.484 -0.754421 285.332 -3.00942 257.399 5.06758C226.739 13.9326 201.012 34.3536 173.402 50.3636C153.268 62.0386 132.021 71.7046 110.3 80.0216C92.7204 86.7526 70.3774 90.5236 55.9294 103.309C47.0664 111.151 39.2694 120.205 32.5784 129.955C5.60736 169.262 -3.18264 219.486 0.984359 266.362C3.88736 299.028 12.8704 332.076 33.0204 357.949C61.2934 394.253 109.818 412.142 155.611 407.633C207.58 402.515 256.858 371.447 308.543 378.902C334.27 382.613 358.893 395.835 384.769 393.376C410.277 390.952 432.114 373.413 447.501 352.925C459.842 336.493 468.054 316.629 468.814 295.949C469.637 273.552 459.499 253.135 454.413 231.751C445.521 194.363 449.955 156.132 445.106 118.388Z" fill="white"/>
                </svg>