<svg width="148" height="156" viewBox="0 0 148 156" fill="none" xmlns="http://www.w3.org/2000/svg">
                <path d="M0.793976 6.10931L146.735 6.10931V0.608307L0.793976 0.608307V6.10931Z" stroke="#263238" stroke-miterlimit="10" stroke-linecap="round" stroke-linejoin="round"/>
                <path d="M7.56296 154.866L139.966 154.866L139.966 6.26611L7.56296 6.26611L7.56296 154.866Z" stroke="#263238" stroke-miterlimit="10" stroke-linecap="round" stroke-linejoin="round"/>
                <path d="M12.3257 45.4232L135.358 45.4232V13.1802L12.3257 13.1802V45.4232Z" stroke="#263238" stroke-miterlimit="10" stroke-linecap="round" stroke-linejoin="round"/>
                <path d="M67.9019 32.2711H80.205V26.3321H67.9019V32.2711Z" fill="#263238" stroke="#263238" stroke-miterlimit="10" stroke-linecap="round" stroke-linejoin="round"/>
                <path d="M12.3257 86.1507L135.358 86.1507V53.9077L12.3257 53.9077V86.1507Z" stroke="#263238" stroke-miterlimit="10" stroke-linecap="round" stroke-linejoin="round"/>
                <path d="M67.9019 72.9996H80.205V67.0596H67.9019V72.9996Z" fill="#263238" stroke="#263238" stroke-miterlimit="10" stroke-linecap="round" stroke-linejoin="round"/>
                <path d="M12.3257 127.067L135.358 127.067V94.8242L12.3257 94.8242V127.067Z" stroke="#263238" stroke-miterlimit="10" stroke-linecap="round" stroke-linejoin="round"/>
                <path d="M67.9019 113.916H80.205V107.977H67.9019V113.916Z" fill="#263238" stroke="#263238" stroke-miterlimit="10" stroke-linecap="round" stroke-linejoin="round"/>
                </svg>