<svg width="135" height="330" viewBox="0 0 135 330" fill="none" xmlns="http://www.w3.org/2000/svg">
                <path d="M128.279 50.1996H119.946C118.473 50.1996 117.279 49.0056 117.279 47.5326V24.1996C117.279 22.7266 118.473 21.5326 119.946 21.5326H128.279C129.752 21.5326 130.946 22.7266 130.946 24.1996V47.5326C130.946 49.0056 129.752 50.1996 128.279 50.1996Z" fill="#263238" stroke="#263238" stroke-miterlimit="10"/>
                <path d="M129.738 24.0665H118.487V47.6665H129.738V24.0665Z" fill="white" stroke="#263238" stroke-miterlimit="10"/>
                <path d="M8.52704 162.042C13.145 162.142 17.206 160.329 19.849 158.744C19.631 165.123 19.463 169.954 19.463 169.954C19.463 169.954 20.563 171.879 21.113 172.704C21.663 173.529 26.337 176.279 26.887 178.753C27.437 181.228 29.912 182.603 29.637 186.177C29.362 189.752 26.337 185.902 26.887 186.727C27.437 187.552 29.087 190.302 29.087 192.776C29.087 195.25 23.863 195.251 21.938 193.601C20.013 191.951 13.689 188.102 13.139 184.527L10.997 176.55L8.52704 162.042Z" fill="white" stroke="#263238" stroke-miterlimit="10"/>
                <path d="M19.946 181.867L21.279 187.867C21.279 187.867 25.612 191.2 25.946 193.534" fill="white"/>
                <path d="M19.946 181.867L21.279 187.867C21.279 187.867 25.612 191.2 25.946 193.534" stroke="#263238" stroke-miterlimit="10"/>
                <path d="M26.887 186.727L24.946 182.867" stroke="#263238" stroke-miterlimit="10"/>
                <path d="M41.551 308.641C41.551 308.641 39.986 321.508 41.203 323.073C42.42 324.638 44.333 326.551 47.115 326.898C49.897 327.246 54.592 325.681 54.592 325.681C54.592 325.681 59.287 327.072 64.329 326.55C69.371 326.028 72.675 324.116 73.023 321.681C73.371 319.247 69.024 318.203 66.59 315.595C64.156 312.987 60.279 308.366 60.279 308.366L59.287 304.988C59.287 304.988 53.375 307.944 49.55 308.118C45.725 308.292 43.117 307.596 43.117 307.596L41.551 308.641Z" fill="white" stroke="#263238" stroke-miterlimit="10"/>
                <path d="M73.023 321.682C73.066 321.379 73.037 321.097 72.947 320.831C71.791 321.306 70.319 321.886 68.503 322.552C63.287 324.465 60.678 322.9 58.07 322.9C55.462 322.9 55.288 325.682 47.985 323.769C43.214 322.519 41.419 320.903 40.743 319.93C40.757 321.465 40.884 322.662 41.204 323.074C42.421 324.639 44.334 326.552 47.116 326.899C49.898 327.247 54.593 325.682 54.593 325.682C54.593 325.682 59.288 327.073 64.33 326.551C69.372 326.029 72.675 324.116 73.023 321.682Z" fill="white" stroke="#263238" stroke-miterlimit="10"/>
                <path d="M32.279 148.867C32.279 148.867 25.279 172.367 27.779 188.867C30.279 205.367 42.279 236.367 42.279 236.367C42.279 236.367 40.779 247.867 40.779 251.867C40.779 255.867 37.279 263.367 39.779 271.367C42.279 279.367 42.279 300.367 42.279 301.867C42.279 303.367 41.279 311.367 41.279 311.367C41.279 311.367 43.279 314.367 50.779 314.367C58.279 314.367 60.279 308.367 60.279 308.367C60.279 308.367 67.779 263.867 67.779 256.867C67.779 249.867 75.779 223.867 78.779 213.367C81.779 202.867 85.436 196.182 87.436 192.682C89.436 189.182 88.279 146.867 88.279 146.867L31.279 141.867L32.279 148.867Z" fill="#737373" stroke="#263238" stroke-miterlimit="10"/>
                <path d="M71.632 311.945C71.632 311.945 79.109 314.901 82.76 316.64C86.411 318.379 88.846 318.553 88.846 321.335C88.846 324.117 82.239 326.899 78.24 327.594C74.241 328.289 67.807 328.116 67.112 328.289C66.416 328.463 53.376 330.376 51.811 327.072C50.246 323.768 51.985 312.466 51.985 312.466C51.985 312.466 61.026 314.379 71.632 311.945Z" fill="white" stroke="#263238" stroke-miterlimit="10"/>
                <path d="M67.111 328.289C67.806 328.115 74.24 328.289 78.239 327.594C82.238 326.899 88.845 324.116 88.845 321.334C88.845 320.922 88.7861 320.573 88.6831 320.262C87.3121 321.062 85.527 322.011 83.455 322.899C78.586 324.985 72.153 326.377 62.416 326.203C57.135 326.109 53.503 325.401 51.274 324.773C51.374 325.708 51.543 326.508 51.81 327.072C53.375 330.376 66.416 328.463 67.111 328.289Z" fill="white" stroke="#263238" stroke-miterlimit="10"/>
                <path d="M88.779 150.867C88.779 150.867 91.779 191.367 85.779 221.867C79.779 252.367 69.779 293.867 69.279 295.867C68.779 297.867 72.779 303.367 72.779 303.367V311.367C72.779 311.367 69.279 314.867 61.279 315.867C53.279 316.867 50.779 314.367 50.779 314.367C50.779 314.367 48.779 300.867 48.779 291.367C48.779 281.867 50.779 249.367 50.779 249.367C50.779 249.367 55.279 216.367 54.779 211.367C54.279 206.367 52.779 190.867 52.779 190.867L44.779 181.367" fill="#737373"/>
                <path d="M88.779 150.867C88.779 150.867 91.779 191.367 85.779 221.867C79.779 252.367 69.779 293.867 69.279 295.867C68.779 297.867 72.779 303.367 72.779 303.367V311.367C72.779 311.367 69.279 314.867 61.279 315.867C53.279 316.867 50.779 314.367 50.779 314.367C50.779 314.367 48.779 300.867 48.779 291.367C48.779 281.867 50.779 249.367 50.779 249.367C50.779 249.367 55.279 216.367 54.779 211.367C54.279 206.367 52.779 190.867 52.779 190.867L44.779 181.367" stroke="#263238" stroke-miterlimit="10"/>
                <path d="M4.73704 143.251L20.465 140.488C20.395 142.62 20.838 129.162 20.838 128.159C20.838 125.959 26.062 112.211 26.062 112.211C26.062 112.211 30.186 130.084 30.186 132.284C30.186 134.484 28.536 151.257 30.736 153.456C32.936 155.656 40.635 160.055 57.683 159.505C74.731 158.955 87.379 157.58 90.679 154.281C93.979 150.982 90.129 140.808 89.854 139.433C89.579 138.058 94.254 102.037 94.254 102.037C94.254 102.037 112.677 121.285 123.675 118.535C134.674 115.785 129.449 72.8906 129.449 72.8906L129.999 60.5165C129.999 60.5165 133.574 51.4426 133.574 50.0676C133.574 48.6926 129.999 38.7936 129.999 38.7936C129.999 38.7936 127.799 36.8686 126.424 41.5436C125.049 46.2176 124.774 49.2426 124.774 49.2426C124.774 49.2426 121.474 51.7176 121.749 55.2916C122.024 58.8666 123.124 61.6155 123.124 61.6155L115.7 85.8125C115.7 85.8125 107.451 76.4636 106.901 74.8136C106.351 73.1636 106.626 67.1146 99.752 63.5396C92.878 59.9656 78.855 59.6906 78.855 59.6906L40.085 59.9655C40.085 59.9655 21.937 61.6155 17.813 65.1895C13.688 68.7645 1.04004 114.134 1.04004 121.008C1.04004 123.156 2.16704 129.811 3.73404 138.057L4.73704 143.251Z" fill="white" stroke="#263238" stroke-miterlimit="10"/>
                <path d="M130 38.7936C130 38.7936 129.175 45.6676 129.725 47.0426C130.275 48.4176 130.825 51.7166 130.275 54.4666" stroke="#263238" stroke-miterlimit="10"/>
                <path d="M123.676 118.535C134.675 115.785 129.45 72.8906 129.45 72.8906L129.573 70.1136C126.445 67.8596 123.38 67.8386 121.036 68.4276L115.701 85.8146C115.701 85.8146 107.452 76.4656 106.902 74.8156C106.352 73.1656 106.627 67.1166 99.753 63.5416C92.879 59.9676 78.856 59.6926 78.856 59.6926L40.086 59.9676C40.086 59.9676 21.938 61.6176 17.814 65.1916C13.689 68.7666 1.04105 114.136 1.04105 121.01C1.04105 125.088 5.10605 145.427 8.52705 162.043C13.145 162.143 17.206 160.33 19.849 158.745C20.256 146.858 20.838 129.591 20.838 128.16C20.838 125.96 26.062 112.212 26.062 112.212C26.062 112.212 30.186 130.085 30.186 132.285C30.186 134.485 28.536 151.258 30.736 153.457C32.936 155.657 40.635 160.056 57.683 159.506C74.731 158.956 87.379 157.581 90.679 154.282C93.979 150.983 90.129 140.809 89.854 139.434C89.579 138.059 94.2541 102.038 94.2541 102.038C94.2541 102.038 112.677 121.285 123.676 118.535Z" fill="#92E3A9" stroke="#263238" stroke-miterlimit="10"/>
                <path d="M20.66 97.0716L26.063 112.211L14.946 93.1996" stroke="#263238" stroke-miterlimit="10"/>
                <path d="M17.612 88.5336L19.522 93.8856" stroke="#263238" stroke-miterlimit="10"/>
                <path d="M55.695 98.1496C58.128 103.612 61.71 110.455 65.946 114.867" stroke="#263238" stroke-miterlimit="10"/>
                <path d="M52.2791 89.5336C52.2791 89.5336 53.0301 91.7866 54.3711 95.0546" stroke="#263238" stroke-miterlimit="10"/>
                <path d="M58.2791 107.867C58.2791 107.867 64.2791 119.867 67.2791 122.2" stroke="#263238" stroke-miterlimit="10"/>
                <path d="M103.663 93.3156L105.946 91.1996" stroke="#263238" stroke-miterlimit="10"/>
                <path d="M99.946 90.1996L94.2541 102.037L101.595 95.2326" stroke="#263238" stroke-miterlimit="10"/>
                <path d="M125.946 96.8666C125.613 94.5336 115.702 85.8136 115.702 85.8136C115.702 85.8136 125.946 89.8666 128.612 93.5336" stroke="#263238" stroke-miterlimit="10"/>
                <path d="M82.706 23.6705C82.706 23.6705 83.256 30.5445 84.081 31.6445C84.906 32.7445 85.456 41.2686 84.081 43.7426C82.706 46.2166 81.881 49.2415 81.056 50.0665C80.231 50.8915 77.206 50.8915 76.107 50.8915C75.007 50.8915 62.634 50.3416 62.634 50.3416L62.909 33.0185C62.909 33.0185 65.933 20.0965 82.706 23.6705Z" fill="white" stroke="#263238" stroke-miterlimit="10"/>
                <path d="M60.708 4.42357C60.708 4.42357 49.434 7.99856 46.96 17.8966C44.485 27.7956 52.459 39.0686 52.459 39.0686C52.459 39.0686 54.659 47.0426 56.583 48.6926C58.508 50.3426 66.207 48.6926 68.682 48.1426C71.157 47.5926 76.656 32.7446 76.656 32.7446C76.656 32.7446 76.656 36.3196 78.306 36.3196C79.956 36.3196 79.681 31.6456 79.681 30.8206C79.681 29.9956 87.38 24.2216 87.38 14.3226C87.38 4.42356 78.856 0.0245571 70.882 0.574557C62.908 1.12356 60.708 4.42357 60.708 4.42357Z" fill="#263238" stroke="#263238" stroke-miterlimit="10"/>
                <path d="M84.08 59.1415C84.08 59.1415 82.43 53.3675 81.605 52.5425C80.78 51.7175 75.556 48.4185 67.032 47.8685C58.508 47.3185 45.86 47.5935 44.76 48.1435C43.66 48.6935 43.385 53.3675 43.385 53.3675C43.385 53.3675 39.81 56.6675 38.986 58.5915C38.161 60.5165 37.336 61.3415 45.035 67.6655C52.734 73.9895 56.859 76.4645 64.833 74.5395C72.807 72.6145 84.356 61.0665 84.356 61.0665L84.08 59.1415Z" fill="#92E3A9" stroke="#263238" stroke-miterlimit="10"/>
                <path d="M64.412 63.0336C72.068 60.6366 79.956 55.8416 79.956 55.8416" stroke="#263238" stroke-miterlimit="10"/>
                <path d="M43.385 54.4666C43.385 54.4666 48.334 64.3655 57.133 64.3655C58.246 64.3655 59.443 64.2295 60.685 63.9905" stroke="#263238" stroke-miterlimit="10"/>
                </svg>