<svg width="213" height="409" viewBox="0 0 213 409" fill="none" xmlns="http://www.w3.org/2000/svg">
                <path d="M204.391 19.3655H2.56506V393.256H204.391V19.3655Z" fill="white"/>
                <path d="M204.391 329.494H2.56506V393.256H204.391V329.494Z" fill="#DEDEDE"/>
                <path d="M210.451 92.9285C211.828 92.9285 212.944 91.8125 212.944 90.4355V65.5045C212.944 64.1275 211.828 63.0115 210.451 63.0115C210.291 63.0115 210.135 63.0295 209.983 63.0585V16.4265C209.983 7.54954 202.786 0.352539 193.909 0.352539H16.759C7.88105 0.352539 0.685059 7.54954 0.685059 16.4265V392.721C0.685059 401.598 7.88205 408.795 16.759 408.795H193.909C202.787 408.795 209.983 401.598 209.983 392.721V163.795C210.135 163.824 210.29 163.842 210.451 163.842C211.828 163.842 212.944 162.726 212.944 161.349V136.419C212.944 135.042 211.828 133.926 210.451 133.926C210.291 133.926 210.135 133.944 209.983 133.973V128.339C210.135 128.368 210.29 128.386 210.451 128.386C211.828 128.386 212.944 127.27 212.944 125.893V100.963C212.944 99.5855 211.828 98.4695 210.451 98.4695C210.291 98.4695 210.135 98.4875 209.983 98.5165V92.8825C210.135 92.9095 210.29 92.9285 210.451 92.9285ZM200.674 384.552H9.99306V28.0895H200.675V384.552H200.674Z" fill="#263238"/>
                <path d="M194.187 31.7875H178.377V40.4575H194.187V31.7875Z" stroke="#263238" stroke-width="0.8211" stroke-miterlimit="10" stroke-linecap="round" stroke-linejoin="round"/>
                <path d="M190.707 31.7875H178.377V40.4575H190.707V31.7875Z" fill="#263238" stroke="#263238" stroke-width="0.7251" stroke-miterlimit="10" stroke-linecap="round" stroke-linejoin="round"/>
                <path d="M196.381 34.2136H194.154V38.0316H196.381V34.2136Z" fill="#263238" stroke="#263238" stroke-width="0.7251" stroke-miterlimit="10" stroke-linecap="round" stroke-linejoin="round"/>
                <path d="M17.1841 34.4775H14.2861V39.4465H17.1841V34.4775Z" fill="#263238" stroke="#263238" stroke-width="0.8831" stroke-miterlimit="10" stroke-linecap="round" stroke-linejoin="round"/>
                <path d="M21.7401 32.7325H18.8411V39.4465H21.7401V32.7325Z" fill="#263238" stroke="#263238" stroke-width="0.8831" stroke-miterlimit="10" stroke-linecap="round" stroke-linejoin="round"/>
                <path d="M26.2951 30.6705H23.3961V39.4465H26.2951V30.6705Z" fill="#263238" stroke="#263238" stroke-width="0.8831" stroke-miterlimit="10" stroke-linecap="round" stroke-linejoin="round"/>
                <path d="M196.174 45.2795H13.067V93.3985H196.174V45.2795Z" fill="#92E3A9"/>
                <path d="M59.3401 52.2065V87.5395" stroke="white" stroke-miterlimit="10"/>
                <path d="M106.006 52.2065V87.5395" stroke="white" stroke-miterlimit="10"/>
                <path d="M152.673 52.2065V87.5395" stroke="white" stroke-miterlimit="10"/>
                <path opacity="0.15" d="M208.331 163.795C208.483 163.824 208.639 163.842 208.799 163.842C210.176 163.842 211.292 162.726 211.292 161.349V152.416L199.023 174.052V384.552H79.6531L65.9061 408.795H192.257C201.134 408.795 208.331 401.598 208.331 392.721V163.795Z" fill="white"/>
                <path d="M97.5901 259.299C97.5901 255.473 97.5901 251.647 97.5891 247.82L97.5751 247.833C99.4771 247.833 101.379 247.833 103.281 247.833C103.281 245.883 103.281 244 103.281 242.085C101.356 242.085 99.4661 242.085 97.5751 242.085L97.5891 242.098C97.5841 240.183 97.5791 238.269 97.5731 236.354C101.386 236.354 105.2 236.354 109.066 236.354C109.066 234.416 109.066 232.531 109.066 230.648C110.99 230.648 112.862 230.648 114.786 230.648C114.786 232.554 114.786 234.438 114.786 236.325C116.722 236.325 118.605 236.325 120.523 236.325C120.523 232.49 120.523 228.688 120.523 224.885L120.509 224.9C120.751 224.897 120.994 224.891 121.236 224.891C126.731 224.888 132.225 224.885 137.72 224.883C137.72 226.785 137.72 228.688 137.72 230.592C139.655 230.592 141.537 230.592 143.412 230.592C143.412 228.678 143.412 226.797 143.412 224.898C141.486 224.898 139.596 224.898 137.706 224.898C137.706 222.994 137.706 221.091 137.706 219.135C133.854 219.135 130.06 219.135 126.23 219.135C126.23 215.299 126.23 211.516 126.23 207.725C120.489 207.725 114.784 207.725 109.026 207.725C109.026 209.641 109.026 211.525 109.026 213.443C105.19 213.443 101.407 213.443 97.6141 213.443C97.6141 217.273 97.6141 221.067 97.6141 224.915C99.5301 224.915 101.414 224.915 103.288 224.915C103.288 226.841 103.288 228.712 103.288 230.637C101.378 230.637 99.4941 230.637 97.5871 230.637C97.5871 232.583 97.5871 234.476 97.5871 236.368C95.6951 236.368 93.8041 236.368 91.8591 236.368C91.8591 234.446 91.8591 232.562 91.8591 230.628C86.1021 230.628 80.3981 230.628 74.6711 230.628C74.6711 228.705 74.6711 226.834 74.6711 224.911C80.3761 224.911 86.0811 224.911 91.8311 224.911C91.8311 209.604 91.8311 194.347 91.8311 179.035C93.7801 179.035 95.6831 179.035 97.5871 179.035L97.5731 179.021C97.5761 184.541 97.5781 190.06 97.5811 195.579C97.5811 195.772 97.5811 195.965 97.5811 196.191C99.4901 196.191 101.373 196.191 103.308 196.191C103.308 192.395 103.308 188.601 103.308 184.783C105.231 184.783 107.103 184.783 109.026 184.783C109.026 188.573 109.026 192.367 109.026 196.234C110.98 196.234 112.883 196.234 114.786 196.234L114.772 196.219C114.772 198.111 114.772 200.004 114.772 201.947C124.339 201.947 133.866 201.947 143.428 201.947C143.428 203.87 143.428 205.741 143.428 207.667C145.347 207.667 147.231 207.667 149.172 207.667C149.172 209.623 149.172 211.528 149.172 213.432L149.186 213.419C147.284 213.419 145.382 213.419 143.48 213.419C143.48 215.369 143.48 217.25 143.48 219.165C145.405 219.165 147.295 219.165 149.186 219.165L149.172 219.152C149.172 222.954 149.172 226.757 149.172 230.633C151.112 230.633 153.015 230.633 154.918 230.633L154.904 230.62C154.904 234.42 154.904 238.22 154.904 242.071C153.008 242.071 151.126 242.071 149.211 242.071C149.211 245.913 149.211 249.705 149.211 253.567C151.113 253.567 153.015 253.567 154.918 253.567L154.904 253.553C154.904 255.445 154.904 257.337 154.904 259.281C158.738 259.281 162.533 259.281 166.353 259.281C166.353 261.206 166.353 263.078 166.353 265.002C160.654 265.002 154.949 265.002 149.191 265.002C149.191 268.848 149.191 272.642 149.191 276.463C147.266 276.463 145.394 276.463 143.469 276.463C143.469 274.589 143.469 272.705 143.469 270.748C139.602 270.748 135.788 270.748 131.973 270.748L131.987 270.762C131.987 268.87 131.987 266.978 131.987 265.033C130.064 265.033 128.18 265.033 126.271 265.033C126.271 263.108 126.271 261.237 126.271 259.312C130.06 259.312 133.855 259.312 137.681 259.312C137.681 257.376 137.681 255.493 137.681 253.583C128.153 253.583 118.638 253.583 109.07 253.583C109.07 255.458 109.07 257.342 109.07 259.282C105.203 259.282 101.388 259.282 97.5741 259.282L97.5901 259.299ZM131.976 242.101C131.976 240.199 131.976 238.298 131.976 236.393C130.041 236.393 128.16 236.393 126.284 236.393C126.284 238.307 126.284 240.189 126.284 242.088C128.21 242.088 130.1 242.088 131.99 242.088C131.99 243.99 131.99 245.892 131.99 247.795C135.835 247.795 139.626 247.795 143.412 247.795C143.412 245.88 143.412 243.997 143.412 242.101C139.576 242.101 135.776 242.101 131.976 242.101ZM120.493 242.128C118.571 242.128 116.688 242.128 114.82 242.128C114.82 244.045 114.82 245.928 114.82 247.8C116.73 247.8 118.601 247.8 120.493 247.8C120.493 245.903 120.493 244.032 120.493 242.128ZM132.003 213.391C133.925 213.391 135.807 213.391 137.676 213.391C137.676 211.474 137.676 209.591 137.676 207.719C135.766 207.719 133.895 207.719 132.003 207.719C132.003 209.616 132.003 211.487 132.003 213.391Z" fill="#263238"/>
                <path d="M46.0031 196.193C46.0031 182.821 46.0031 169.483 46.0031 156.12C59.3621 156.12 72.7001 156.12 86.0761 156.12C86.0761 169.461 86.0761 182.81 86.0761 196.193C72.7401 196.193 59.3911 196.193 46.0031 196.193ZM51.7491 161.848C51.7491 171.412 51.7491 180.939 51.7491 190.454C61.3101 190.454 70.8371 190.454 80.3551 190.454C80.3551 180.9 80.3551 171.385 80.3551 161.848C70.8151 161.848 61.3001 161.848 51.7491 161.848Z" fill="#263238"/>
                <path d="M166.346 196.206C152.976 196.206 139.638 196.206 126.274 196.206C126.274 182.848 126.274 169.51 126.274 156.133C139.613 156.133 152.962 156.133 166.346 156.133C166.346 169.468 166.346 182.817 166.346 196.206ZM160.627 161.861C151.061 161.861 141.534 161.861 132.021 161.861C132.021 171.422 132.021 180.95 132.021 190.467C141.575 190.467 151.091 190.467 160.627 190.467C160.627 180.926 160.627 171.41 160.627 161.861Z" fill="#263238"/>
                <path d="M46.0161 236.382C59.3881 236.382 72.7261 236.382 86.0891 236.382C86.0891 249.741 86.0891 263.079 86.0891 276.455C72.7491 276.455 59.4001 276.455 46.0161 276.455C46.0161 263.119 46.0161 249.77 46.0161 236.382ZM80.3591 242.128C70.7951 242.128 61.2681 242.128 51.7531 242.128C51.7531 251.689 51.7531 261.215 51.7531 270.735C61.3061 270.735 70.8221 270.735 80.3591 270.735C80.3591 261.194 80.3591 251.679 80.3591 242.128Z" fill="#263238"/>
                <path d="M97.587 179.035C97.587 175.232 97.587 171.428 97.587 167.571C95.668 167.571 93.784 167.571 91.874 167.571C91.874 163.734 91.874 159.951 91.874 156.13C101.396 156.13 110.924 156.13 120.483 156.13C120.483 159.919 120.483 163.714 120.483 167.545C118.599 167.545 116.727 167.545 114.818 167.545C114.818 169.465 114.818 171.348 114.818 173.286C116.699 173.286 118.583 173.286 120.491 173.286C120.491 177.123 120.491 180.906 120.491 184.725C118.607 184.725 116.724 184.725 114.786 184.725C114.786 182.841 114.786 180.956 114.786 179.037C112.86 179.037 110.988 179.037 109.062 179.037C109.062 177.117 109.062 175.233 109.062 173.322C107.137 173.322 105.264 173.322 103.338 173.322C103.338 175.195 103.338 177.079 103.338 179.022C101.381 179.022 99.477 179.022 97.573 179.022L97.587 179.035ZM103.337 167.526C105.257 167.526 107.139 167.526 109.01 167.526C109.01 165.609 109.01 163.727 109.01 161.853C107.101 161.853 105.23 161.853 103.337 161.853C103.337 163.748 103.337 165.619 103.337 167.526Z" fill="#263238"/>
                <path d="M74.64 207.688C74.64 209.58 74.64 211.472 74.64 213.417C78.474 213.417 82.2691 213.417 86.0891 213.417C86.0891 215.342 86.0891 217.214 86.0891 219.139C80.389 219.139 74.684 219.139 68.925 219.139C68.925 222.986 68.925 226.781 68.925 230.601C61.267 230.601 53.663 230.601 46.019 230.601C46.019 226.815 46.019 223.02 46.019 219.193C47.893 219.193 49.776 219.193 51.696 219.193C51.696 221.073 51.696 222.945 51.696 224.855C55.526 224.855 59.321 224.855 63.189 224.855C63.189 219.138 63.189 213.413 63.189 207.688L63.175 207.702C67.001 207.702 70.827 207.702 74.653 207.702L74.64 207.688Z" fill="#263238"/>
                <path d="M97.576 259.284C97.576 261.176 97.576 263.069 97.576 265.014C99.495 265.014 101.379 265.014 103.299 265.014C103.299 266.939 103.299 268.812 103.299 270.737C105.218 270.737 107.102 270.737 109.017 270.737C109.017 272.674 109.017 274.557 109.017 276.467C103.311 276.467 97.617 276.467 91.886 276.467C91.886 270.768 91.886 265.062 91.886 259.298C93.782 259.298 95.686 259.298 97.59 259.298L97.576 259.284Z" fill="#263238"/>
                <path d="M63.19 207.687C59.388 207.687 55.585 207.687 51.73 207.687C51.73 209.603 51.73 211.487 51.73 213.398C49.806 213.398 47.934 213.398 46.022 213.398C46.022 209.618 46.022 205.824 46.022 201.995C51.71 201.995 57.414 201.995 63.177 201.995C63.177 203.894 63.177 205.797 63.177 207.701L63.19 207.687Z" fill="#263238"/>
                <path d="M166.346 219.136C164.439 219.136 162.567 219.136 160.659 219.136C160.659 215.33 160.659 211.547 160.659 207.71C158.74 207.71 156.856 207.71 154.943 207.71C154.943 205.773 154.943 203.89 154.943 201.982C158.744 201.982 162.527 201.982 166.345 201.982C166.346 207.689 166.346 213.395 166.346 219.136Z" fill="#263238"/>
                <path d="M74.654 207.702C74.654 205.811 74.654 203.92 74.654 201.994C78.466 201.994 82.258 201.994 86.083 201.994C86.083 203.872 86.083 205.754 86.083 207.688C82.265 207.688 78.453 207.688 74.641 207.688L74.654 207.702Z" fill="#263238"/>
                <path d="M154.92 230.634C154.92 228.744 154.92 226.853 154.92 224.928C156.819 224.928 158.701 224.928 160.615 224.928C160.615 226.804 160.615 228.686 160.615 230.621C158.71 230.621 156.808 230.621 154.906 230.621L154.92 230.634Z" fill="#263238"/>
                <path d="M160.674 236.382C162.57 236.382 164.441 236.382 166.347 236.382C166.347 238.268 166.347 240.15 166.347 242.063C164.465 242.063 162.583 242.063 160.674 242.063C160.674 240.181 160.674 238.31 160.674 236.382Z" fill="#263238"/>
                <path d="M114.787 196.235C114.787 194.345 114.787 192.454 114.787 190.529C116.687 190.529 118.568 190.529 120.482 190.529C120.482 192.405 120.482 194.287 120.482 196.222C118.577 196.222 116.675 196.222 114.773 196.222L114.787 196.235Z" fill="#263238"/>
                <path d="M97.5891 247.819C95.6981 247.819 93.8071 247.819 91.8821 247.819C91.8821 245.918 91.8821 244.035 91.8821 242.099C93.7841 242.099 95.6861 242.099 97.5891 242.099L97.5751 242.086C97.5751 244.002 97.5751 245.917 97.5751 247.833L97.5891 247.819Z" fill="#263238"/>
                <path d="M154.92 253.569C154.92 251.679 154.92 249.788 154.92 247.862C156.819 247.862 158.701 247.862 160.615 247.862C160.615 249.738 160.615 251.62 160.615 253.555C158.71 253.555 156.808 253.555 154.906 253.555L154.92 253.569Z" fill="#263238"/>
                <path d="M149.174 213.434C151.065 213.434 152.956 213.434 154.881 213.434C154.881 215.336 154.881 217.218 154.881 219.154C152.979 219.154 151.077 219.154 149.174 219.154L149.188 219.167C149.188 217.251 149.188 215.335 149.188 213.419L149.174 213.434Z" fill="#263238"/>
                <path d="M120.481 270.738C118.574 270.738 116.703 270.738 114.807 270.738C114.807 268.845 114.807 266.974 114.807 265.065C116.681 265.065 118.564 265.065 120.481 265.065C120.481 266.935 120.481 268.817 120.481 270.738Z" fill="#263238"/>
                <path d="M131.976 270.752C131.976 272.642 131.976 274.533 131.976 276.459C130.077 276.459 128.195 276.459 126.281 276.459C126.281 274.583 126.281 272.701 126.281 270.766C128.186 270.766 130.088 270.766 131.99 270.766L131.976 270.752Z" fill="#263238"/>
                <path d="M166.347 276.472C164.443 276.472 162.572 276.472 160.675 276.472C160.675 274.58 160.675 272.709 160.675 270.799C162.547 270.799 164.43 270.799 166.347 270.799C166.347 272.666 166.347 274.549 166.347 276.472Z" fill="#263238"/>
                <path d="M120.523 224.887C118.633 224.887 116.742 224.887 114.817 224.887C114.817 222.987 114.817 221.107 114.817 219.193C116.693 219.193 118.575 219.193 120.51 219.193C120.51 221.098 120.51 223 120.51 224.902L120.523 224.887Z" fill="#263238"/>
                <path d="M74.6151 184.739C68.8861 184.739 63.1921 184.739 57.4741 184.739C57.4741 179.024 57.4741 173.33 57.4741 167.599C63.1721 167.599 68.8761 167.599 74.6151 167.599C74.6151 173.292 74.6151 178.997 74.6151 184.739Z" fill="#263238"/>
                <path d="M137.736 184.726C137.736 178.998 137.736 173.305 137.736 167.586C143.451 167.586 149.144 167.586 154.876 167.586C154.876 173.282 154.876 178.987 154.876 184.726C149.184 184.726 143.48 184.726 137.736 184.726Z" fill="#263238"/>
                <path d="M57.47 264.992C57.47 259.264 57.47 253.571 57.47 247.852C63.185 247.852 68.878 247.852 74.61 247.852C74.61 253.549 74.61 259.253 74.61 264.992C68.918 264.992 63.213 264.992 57.47 264.992Z" fill="#263238"/>
                <path d="M62.65 142.536H37.558V170.225" stroke="#92E3A9" stroke-width="2" stroke-miterlimit="10"/>
                <path d="M153.932 142.536H179.024V170.225" stroke="#92E3A9" stroke-width="2" stroke-miterlimit="10"/>
                <path d="M62.65 288.357H37.558V260.67" stroke="#92E3A9" stroke-width="2" stroke-miterlimit="10"/>
                <path d="M153.932 288.357H179.024V260.67" stroke="#92E3A9" stroke-width="2" stroke-miterlimit="10"/>
                </svg>