<svg width="59" height="188" viewBox="0 0 59 188" fill="none" xmlns="http://www.w3.org/2000/svg">
                <path d="M13.3331 39.8225L24.9311 150.957" stroke="#263238" stroke-width="2" stroke-miterlimit="10"/>
                <path d="M23.0621 129.689L17.8041 124.135" stroke="#263238" stroke-width="2" stroke-miterlimit="10"/>
                <path d="M19.4021 125.799C19.4021 125.799 19.5531 123.342 17.3091 121.339C15.9591 120.134 8.85709 117.146 8.18309 119.647C7.45009 122.368 14.7201 127.711 19.4021 125.799Z" fill="#92E3A9" stroke="#263238" stroke-miterlimit="10"/>
                <path d="M19.4021 125.799L12.6401 121.585" stroke="#263238" stroke-width="0.5" stroke-miterlimit="10"/>
                <path d="M24.3811 142.328L19.1231 136.774" stroke="#263238" stroke-width="2" stroke-miterlimit="10"/>
                <path d="M20.7211 138.438C20.7211 138.438 20.8721 135.981 18.6281 133.978C17.2791 132.773 10.1761 129.785 9.50209 132.286C8.76909 135.007 16.0391 140.351 20.7211 138.438Z" fill="#92E3A9" stroke="#263238" stroke-miterlimit="10"/>
                <path d="M20.7211 138.438L13.9591 134.224" stroke="#263238" stroke-width="0.5" stroke-miterlimit="10"/>
                <path d="M19.8431 98.8466L14.5851 93.2925" stroke="#263238" stroke-width="2" stroke-miterlimit="10"/>
                <path d="M16.1831 94.9566C16.1831 94.9566 16.3341 92.4996 14.0901 90.4966C12.7401 89.2916 5.63809 86.3035 4.96409 88.8045C4.23109 91.5255 11.5011 96.8696 16.1831 94.9566Z" fill="#92E3A9" stroke="#263238" stroke-miterlimit="10"/>
                <path d="M16.1831 94.9565L9.4211 90.7426" stroke="#263238" stroke-width="0.5" stroke-miterlimit="10"/>
                <path d="M21.1621 111.486L15.9051 105.932" stroke="#263238" stroke-width="2" stroke-miterlimit="10"/>
                <path d="M17.5021 107.596C17.5021 107.596 17.6521 105.139 15.4091 103.136C14.0591 101.931 6.95709 98.9426 6.28309 101.444C5.55009 104.165 12.8201 109.509 17.5021 107.596Z" fill="#92E3A9" stroke="#263238" stroke-miterlimit="10"/>
                <path d="M17.5021 107.596L10.7401 103.383" stroke="#263238" stroke-width="0.5" stroke-miterlimit="10"/>
                <path d="M17.7011 78.3145L12.4431 72.7615" stroke="#263238" stroke-width="2" stroke-miterlimit="10"/>
                <path d="M14.0401 74.4256C14.0401 74.4256 14.1901 71.9686 11.9471 69.9656C10.5971 68.7606 3.49509 65.7726 2.82109 68.2736C2.08809 70.9946 9.35809 76.3376 14.0401 74.4256Z" fill="#92E3A9" stroke="#263238" stroke-miterlimit="10"/>
                <path d="M14.0401 74.4255L7.27809 70.2115" stroke="#263238" stroke-width="0.5" stroke-miterlimit="10"/>
                <path d="M15.5491 57.6935L10.2911 52.1405" stroke="#263238" stroke-width="2" stroke-miterlimit="10"/>
                <path d="M11.8881 53.8045C11.8881 53.8045 12.0381 51.3476 9.79509 49.3446C8.44509 48.1396 1.34309 45.1516 0.669094 47.6526C-0.0639058 50.3736 7.20609 55.7165 11.8881 53.8045Z" fill="#92E3A9" stroke="#263238" stroke-miterlimit="10"/>
                <path d="M11.8881 53.8045L5.1261 49.5905" stroke="#263238" stroke-width="0.5" stroke-miterlimit="10"/>
                <path d="M22.1781 122.21L26.1761 115.691" stroke="#263238" stroke-width="2" stroke-miterlimit="10"/>
                <path d="M24.9571 117.649C24.9571 117.649 24.3031 115.277 26.0841 112.853C27.1561 111.395 33.4881 107.005 34.6641 109.313C35.9431 111.824 29.9331 118.553 24.9571 117.649Z" fill="#92E3A9" stroke="#263238" stroke-miterlimit="10"/>
                <path d="M24.9571 117.649L31.0451 111.829" stroke="#263238" stroke-width="0.5" stroke-miterlimit="10"/>
                <path d="M18.7071 88.9496L22.7051 82.4305" stroke="#263238" stroke-width="2" stroke-miterlimit="10"/>
                <path d="M21.4861 84.3885C21.4861 84.3885 20.8321 82.0166 22.6131 79.5926C23.6851 78.1346 30.0171 73.7445 31.1931 76.0525C32.4721 78.5635 26.4621 85.2925 21.4861 84.3885Z" fill="#92E3A9" stroke="#263238" stroke-miterlimit="10"/>
                <path d="M21.4861 84.3885L27.5741 78.5685" stroke="#263238" stroke-width="0.5" stroke-miterlimit="10"/>
                <path d="M17.1821 74.3336L21.1801 67.8135" stroke="#263238" stroke-width="2" stroke-miterlimit="10"/>
                <path d="M19.9601 69.7715C19.9601 69.7715 19.3061 67.3986 21.0871 64.9756C22.1591 63.5176 28.4911 59.1275 29.6681 61.4355C30.9461 63.9465 24.9371 70.6765 19.9601 69.7715Z" fill="#92E3A9" stroke="#263238" stroke-miterlimit="10"/>
                <path d="M19.9601 69.7715L26.0491 63.9525" stroke="#263238" stroke-width="0.5" stroke-miterlimit="10"/>
                <path d="M14.9461 52.9055L18.9441 46.3865" stroke="#263238" stroke-width="2" stroke-miterlimit="10"/>
                <path d="M17.7241 48.3435C17.7241 48.3435 17.0701 45.9715 18.8511 43.5475C19.9231 42.0895 26.2551 37.6995 27.4311 40.0075C28.7101 42.5185 22.7001 49.2485 17.7241 48.3435Z" fill="#92E3A9" stroke="#263238" stroke-miterlimit="10"/>
                <path d="M17.7241 48.3435L23.8131 42.5245" stroke="#263238" stroke-width="0.5" stroke-miterlimit="10"/>
                <path d="M13.2361 39.2055C13.2361 39.2055 12.5821 36.8335 14.3631 34.4095C15.4351 32.9515 21.7671 28.5615 22.9431 30.8695C24.2221 33.3805 18.2121 40.1095 13.2361 39.2055Z" fill="#92E3A9" stroke="#263238" stroke-miterlimit="10"/>
                <path d="M13.2361 39.2055L19.3241 33.3856" stroke="#263238" stroke-width="0.5" stroke-miterlimit="10"/>
                <path d="M13.5891 39.4565C13.5891 39.4565 11.1611 39.8585 8.93809 37.8325C7.60009 36.6135 3.89809 29.8555 6.31709 28.9285C8.94809 27.9195 15.0101 34.6025 13.5891 39.4565Z" fill="#92E3A9" stroke="#263238" stroke-miterlimit="10"/>
                <path d="M13.5891 39.4565L8.43909 32.7906" stroke="#263238" stroke-width="0.5" stroke-miterlimit="10"/>
                <path d="M43.9241 55.1275L32.3911 166.268" stroke="#263238" stroke-width="2" stroke-miterlimit="10"/>
                <path d="M34.9411 145.071L30.9391 138.554" stroke="#263238" stroke-width="2" stroke-miterlimit="10"/>
                <path d="M32.1601 140.511C32.1601 140.511 32.8131 138.138 31.0301 135.716C29.9581 134.259 23.6221 129.872 22.4471 132.181C21.1701 134.693 27.1841 141.419 32.1601 140.511Z" fill="#92E3A9" stroke="#263238" stroke-miterlimit="10"/>
                <path d="M32.1601 140.511L26.4101 134.996" stroke="#263238" stroke-width="0.5" stroke-miterlimit="10"/>
                <path d="M38.1411 114.227L34.1401 107.71" stroke="#263238" stroke-width="2" stroke-miterlimit="10"/>
                <path d="M35.3601 109.668C35.3601 109.668 36.0131 107.295 34.2301 104.873C33.1581 103.416 26.8221 99.0285 25.6471 101.338C24.3711 103.849 30.3851 110.575 35.3601 109.668Z" fill="#92E3A9" stroke="#263238" stroke-miterlimit="10"/>
                <path d="M35.3601 109.668L29.6111 104.152" stroke="#263238" stroke-width="0.5" stroke-miterlimit="10"/>
                <path d="M36.8301 126.867L32.8281 120.35" stroke="#263238" stroke-width="2" stroke-miterlimit="10"/>
                <path d="M34.0491 122.307C34.0491 122.307 34.7021 119.934 32.9191 117.512C31.8471 116.055 25.5111 111.668 24.3361 113.977C23.0591 116.489 29.0731 123.215 34.0491 122.307Z" fill="#92E3A9" stroke="#263238" stroke-miterlimit="10"/>
                <path d="M34.0491 122.307L28.2991 116.792" stroke="#263238" stroke-width="0.5" stroke-miterlimit="10"/>
                <path d="M40.2721 93.6945L36.2701 87.1776" stroke="#263238" stroke-width="2" stroke-miterlimit="10"/>
                <path d="M37.4911 89.1345C37.4911 89.1345 38.1441 86.7615 36.3611 84.3395C35.2891 82.8825 28.9531 78.4955 27.7781 80.8045C26.5011 83.3165 32.5151 90.0415 37.4911 89.1345Z" fill="#92E3A9" stroke="#263238" stroke-miterlimit="10"/>
                <path d="M37.4911 89.1346L31.7411 83.6186" stroke="#263238" stroke-width="0.5" stroke-miterlimit="10"/>
                <path d="M42.4121 73.0725L38.4101 66.5555" stroke="#263238" stroke-width="2" stroke-miterlimit="10"/>
                <path d="M39.6311 68.5125C39.6311 68.5125 40.2841 66.1396 38.5011 63.7176C37.4291 62.2606 31.0931 57.8735 29.9181 60.1825C28.6411 62.6935 34.6551 69.4195 39.6311 68.5125Z" fill="#92E3A9" stroke="#263238" stroke-miterlimit="10"/>
                <path d="M39.6311 68.5125L33.8811 62.9966" stroke="#263238" stroke-width="0.5" stroke-miterlimit="10"/>
                <path d="M35.6161 137.571L40.8701 132.015" stroke="#263238" stroke-width="2" stroke-miterlimit="10"/>
                <path d="M39.2741 133.68C39.2741 133.68 39.1221 131.224 41.3641 129.219C42.7131 128.013 49.8141 125.021 50.4891 127.522C51.2241 130.242 43.9571 135.589 39.2741 133.68Z" fill="#92E3A9" stroke="#263238" stroke-miterlimit="10"/>
                <path d="M39.2741 133.68L46.4311 129.238" stroke="#263238" stroke-width="0.5" stroke-miterlimit="10"/>
                <path d="M39.0671 104.309L44.3221 98.7516" stroke="#263238" stroke-width="2" stroke-miterlimit="10"/>
                <path d="M42.7251 100.417C42.7251 100.417 42.5731 97.9595 44.8151 95.9555C46.1641 94.7495 53.2651 91.7575 53.9401 94.2585C54.6761 96.9785 47.4091 102.327 42.7251 100.417Z" fill="#92E3A9" stroke="#263238" stroke-miterlimit="10"/>
                <path d="M42.7251 100.417L49.8821 95.9756" stroke="#263238" stroke-width="0.5" stroke-miterlimit="10"/>
                <path d="M40.5841 89.6916L45.8391 84.1346" stroke="#263238" stroke-width="2" stroke-miterlimit="10"/>
                <path d="M44.2421 85.7996C44.2421 85.7996 44.0901 83.3425 46.3321 81.3385C47.6811 80.1325 54.7821 77.1405 55.4581 79.6415C56.1921 82.3615 48.9251 87.7096 44.2421 85.7996Z" fill="#92E3A9" stroke="#263238" stroke-miterlimit="10"/>
                <path d="M44.2421 85.7996L51.3991 81.3586" stroke="#263238" stroke-width="0.5" stroke-miterlimit="10"/>
                <path d="M42.8081 68.2615L48.0621 62.7055" stroke="#263238" stroke-width="2" stroke-miterlimit="10"/>
                <path d="M46.4661 64.3705C46.4661 64.3705 46.3141 61.9135 48.5561 59.9095C49.9051 58.7035 57.0061 55.7115 57.6811 58.2125C58.4161 60.9325 51.1491 66.2805 46.4661 64.3705Z" fill="#92E3A9" stroke="#263238" stroke-miterlimit="10"/>
                <path d="M46.4661 64.3705L53.6221 59.9295" stroke="#263238" stroke-width="0.5" stroke-miterlimit="10"/>
                <path d="M43.9551 54.5035C43.9551 54.5035 43.8031 52.0465 46.0451 50.0425C47.3941 48.8365 54.4951 45.8445 55.1701 48.3455C55.9051 51.0655 48.6381 56.4135 43.9551 54.5035Z" fill="#92E3A9" stroke="#263238" stroke-miterlimit="10"/>
                <path d="M43.9551 54.5035L51.1121 50.0616" stroke="#263238" stroke-width="0.5" stroke-miterlimit="10"/>
                <path d="M44.2491 54.8215C44.2491 54.8215 41.7901 54.7156 40.0321 52.2756C38.9741 50.8076 36.7431 43.4316 39.3011 43.0226C42.0831 42.5766 46.6391 50.3645 44.2491 54.8215Z" fill="#92E3A9" stroke="#263238" stroke-miterlimit="10"/>
                <path d="M44.2491 54.8215L40.5831 47.2386" stroke="#263238" stroke-width="0.5" stroke-miterlimit="10"/>
                <path d="M30.7081 9.87054V150.415" stroke="#263238" stroke-width="2" stroke-miterlimit="10"/>
                <path d="M30.8201 129.284L26.1661 123.214" stroke="#263238" stroke-width="2" stroke-miterlimit="10"/>
                <path d="M27.5831 125.035C27.5831 125.035 27.9881 122.607 25.9651 120.382C24.7481 119.043 17.9931 115.334 17.0631 117.752C16.0511 120.382 22.7271 126.451 27.5831 125.035Z" fill="#92E3A9" stroke="#263238" stroke-miterlimit="10"/>
                <path d="M27.5831 125.035L21.2951 120.142" stroke="#263238" stroke-width="0.5" stroke-miterlimit="10"/>
                <path d="M30.8201 102.871L26.1661 96.8015" stroke="#263238" stroke-width="2" stroke-miterlimit="10"/>
                <path d="M27.5831 98.6225C27.5831 98.6225 27.9881 96.1945 25.9651 93.9695C24.7481 92.6305 17.9931 88.9215 17.0631 91.3395C16.0511 93.9695 22.7271 100.039 27.5831 98.6225Z" fill="#92E3A9" stroke="#263238" stroke-miterlimit="10"/>
                <path d="M27.5831 98.6226L21.2951 93.7296" stroke="#263238" stroke-width="0.5" stroke-miterlimit="10"/>
                <path d="M30.8201 71.8615L26.1661 65.7925" stroke="#263238" stroke-width="2" stroke-miterlimit="10"/>
                <path d="M27.5831 67.6135C27.5831 67.6135 27.9881 65.1855 25.9651 62.9605C24.7481 61.6215 17.9931 57.9125 17.0631 60.3305C16.0511 62.9605 22.7271 69.0295 27.5831 67.6135Z" fill="#92E3A9" stroke="#263238" stroke-miterlimit="10"/>
                <path d="M27.5831 67.6136L21.2951 62.7206" stroke="#263238" stroke-width="0.5" stroke-miterlimit="10"/>
                <path d="M30.8201 51.2185L26.1661 45.1495" stroke="#263238" stroke-width="2" stroke-miterlimit="10"/>
                <path d="M27.5831 46.9705C27.5831 46.9705 27.9881 44.5425 25.9651 42.3175C24.7481 40.9785 17.9931 37.2696 17.0631 39.6876C16.0511 42.3176 22.7271 48.3865 27.5831 46.9705Z" fill="#92E3A9" stroke="#263238" stroke-miterlimit="10"/>
                <path d="M27.5831 46.9706L21.2951 42.0775" stroke="#263238" stroke-width="0.5" stroke-miterlimit="10"/>
                <path d="M30.8201 30.4855L26.1661 24.4165" stroke="#263238" stroke-width="2" stroke-miterlimit="10"/>
                <path d="M27.5831 26.2375C27.5831 26.2375 27.9881 23.8095 25.9651 21.5845C24.7481 20.2455 17.9931 16.5365 17.0631 18.9545C16.0511 21.5845 22.7271 27.6535 27.5831 26.2375Z" fill="#92E3A9" stroke="#263238" stroke-miterlimit="10"/>
                <path d="M27.5831 26.2375L21.2951 21.3445" stroke="#263238" stroke-width="0.5" stroke-miterlimit="10"/>
                <path d="M30.7171 137.349L35.3701 131.28" stroke="#263238" stroke-width="2" stroke-miterlimit="10"/>
                <path d="M33.9541 133.1C33.9541 133.1 33.5491 130.672 35.5721 128.447C36.7891 127.108 43.5441 123.399 44.4741 125.817C45.4851 128.447 38.8091 134.516 33.9541 133.1Z" fill="#92E3A9" stroke="#263238" stroke-miterlimit="10"/>
                <path d="M33.9541 133.1L40.6141 127.944" stroke="#263238" stroke-width="0.5" stroke-miterlimit="10"/>
                <path d="M30.7171 95.3416L35.3701 89.2726" stroke="#263238" stroke-width="2" stroke-miterlimit="10"/>
                <path d="M33.9541 91.0925C33.9541 91.0925 33.5491 88.6645 35.5721 86.4395C36.7891 85.1005 43.5441 81.3915 44.4741 83.8095C45.4851 86.4395 38.8091 92.5095 33.9541 91.0925Z" fill="#92E3A9" stroke="#263238" stroke-miterlimit="10"/>
                <path d="M33.9541 91.0926L40.6141 85.9366" stroke="#263238" stroke-width="0.5" stroke-miterlimit="10"/>
                <path d="M30.7171 74.6086L35.3701 68.5396" stroke="#263238" stroke-width="2" stroke-miterlimit="10"/>
                <path d="M33.9541 70.3595C33.9541 70.3595 33.5491 67.9315 35.5721 65.7065C36.7891 64.3675 43.5441 60.6585 44.4741 63.0765C45.4851 65.7075 38.8091 71.7765 33.9541 70.3595Z" fill="#92E3A9" stroke="#263238" stroke-miterlimit="10"/>
                <path d="M33.9541 70.3596L40.6141 65.2036" stroke="#263238" stroke-width="0.5" stroke-miterlimit="10"/>
                <path d="M30.7171 47.2046L35.3701 41.1356" stroke="#263238" stroke-width="2" stroke-miterlimit="10"/>
                <path d="M33.9541 42.9565C33.9541 42.9565 33.5491 40.5285 35.5721 38.3035C36.7891 36.9645 43.5441 33.2555 44.4741 35.6735C45.4851 38.3035 38.8091 44.3725 33.9541 42.9565Z" fill="#92E3A9" stroke="#263238" stroke-miterlimit="10"/>
                <path d="M33.9541 42.9565L40.6141 37.8005" stroke="#263238" stroke-width="0.5" stroke-miterlimit="10"/>
                <path d="M30.7171 25.6606L35.3701 19.5916" stroke="#263238" stroke-width="2" stroke-miterlimit="10"/>
                <path d="M33.9541 21.4125C33.9541 21.4125 33.5491 18.9845 35.5721 16.7595C36.7891 15.4205 43.5441 11.7115 44.4741 14.1295C45.4851 16.7595 38.8091 22.8285 33.9541 21.4125Z" fill="#92E3A9" stroke="#263238" stroke-miterlimit="10"/>
                <path d="M33.9541 21.4125L40.6141 16.2556" stroke="#263238" stroke-width="0.5" stroke-miterlimit="10"/>
                <path d="M30.4381 11.8566C30.4381 11.8566 30.0331 9.42857 32.0561 7.20357C33.2731 5.86457 40.0271 2.15556 40.9581 4.57356C41.9701 7.20356 35.2941 13.2736 30.4381 11.8566Z" fill="#92E3A9" stroke="#263238" stroke-miterlimit="10"/>
                <path d="M30.4381 11.8565L37.0981 6.70056" stroke="#263238" stroke-width="0.5" stroke-miterlimit="10"/>
                <path d="M30.7631 12.1435C30.7631 12.1435 28.3061 12.2915 26.3051 10.0465C25.1011 8.69553 22.1211 1.58954 24.6231 0.918541C27.3451 0.187541 32.6811 7.46355 30.7631 12.1435Z" fill="#92E3A9" stroke="#263238" stroke-miterlimit="10"/>
                <path d="M30.7631 12.1436L26.3341 4.97955" stroke="#263238" stroke-width="0.5" stroke-miterlimit="10"/>
                <path d="M36.4901 186.867H21.6051L19.7451 149.276H38.3501L36.4901 186.867Z" fill="#263238" stroke="#263238" stroke-miterlimit="10"/>
                </svg>