<svg width="54" height="83" viewBox="0 0 54 83" fill="none" xmlns="http://www.w3.org/2000/svg">
                <path d="M3.82533 17.5946C5.31633 18.2466 8.96534 18.1646 8.96834 18.1646C9.00634 18.1636 8.18434 15.7756 8.11534 15.6316C7.31434 13.9566 4.78331 11.1916 2.72331 11.4706C1.23931 11.6716 0.414314 13.1566 0.749314 14.5536C1.09031 15.9786 2.55433 17.0386 3.82533 17.5946Z" fill="#263238"/>
                <path d="M40.7303 18.3966C40.7623 18.4166 41.3943 15.9716 41.4163 15.8126C41.6723 13.9736 41.0863 10.2717 39.2143 9.36765C37.8663 8.71665 36.3583 9.49965 35.8673 10.8496C35.3653 12.2286 36.0013 13.9206 36.7553 15.0846C37.6393 16.4506 40.7283 18.3956 40.7303 18.3966Z" fill="#263238"/>
                <path d="M51.6203 5.17461C49.5533 4.95261 47.0973 7.78461 46.3423 9.48061C46.2773 9.62761 45.5203 12.0366 45.5583 12.0356C45.5583 12.0356 45.5934 12.0356 45.6024 12.0356C45.2114 12.4796 44.7973 12.9606 44.3553 13.4946C43.5473 14.4876 42.6423 15.6176 41.7413 16.9136C40.8373 18.2056 39.8913 19.6356 39.0313 21.2316C38.1663 22.8296 37.3393 24.5556 36.7163 26.4436C36.7093 26.4646 36.7044 26.4886 36.6974 26.5096C36.7074 25.9006 36.6813 24.1976 36.6643 24.0666C36.4263 22.2256 34.8833 18.8086 32.8383 18.4306C31.3653 18.1586 30.1183 19.3126 30.0013 20.7446C29.8813 22.2066 30.9423 23.6706 31.9763 24.5946C33.1423 25.6366 36.3793 26.6446 36.6373 26.7246C36.0603 28.5286 35.6154 30.4266 35.2704 32.3716C35.0723 33.4836 34.9063 34.6096 34.7553 35.7416C34.7473 35.2146 34.7363 34.7446 34.7283 34.6786C34.4893 32.8376 32.9473 29.4206 30.9023 29.0436C29.4293 28.7716 28.1823 29.9256 28.0653 31.3576C27.9453 32.8206 29.0063 34.2836 30.0403 35.2076C31.0893 36.1446 33.8313 37.0606 34.5603 37.2926C34.5063 37.7276 34.4483 38.1606 34.3963 38.5956C34.1463 40.6816 33.9073 42.7646 33.6093 44.8006C33.5053 45.5186 33.3753 46.2206 33.2483 46.9246C33.2413 46.4566 33.2313 46.0626 33.2233 46.0026C32.9843 44.1616 31.4423 40.7446 29.3973 40.3676C27.9243 40.0956 26.6773 41.2486 26.5603 42.6816C26.4403 44.1436 27.5013 45.6076 28.5353 46.5316C29.5363 47.4256 32.0604 48.2936 32.9254 48.5736C32.7733 49.2896 32.6233 50.0076 32.4433 50.6956C32.3103 51.1626 32.2143 51.6206 32.0553 52.0826C31.9073 52.5426 31.7593 52.9976 31.6143 53.4486C31.3023 54.3066 30.9853 55.1946 30.6593 56.0246C30.4373 56.6036 30.2153 57.1506 29.9923 57.7026C30.1043 56.9896 30.2953 55.5896 30.2983 55.4706C30.3273 54.2376 29.8893 52.2326 29.0173 50.8236C29.0223 50.6416 29.0123 50.4596 28.9833 50.2796C28.7553 48.8616 27.4223 47.8076 25.9753 48.1926C23.9663 48.7276 22.6923 52.2536 22.5973 54.1066C22.5913 54.2156 22.6633 55.4096 22.7213 56.1616C22.6203 55.7246 22.5273 55.2996 22.4173 54.8506C22.2063 53.9626 21.9703 53.0816 21.7193 52.1336C21.5823 51.6796 21.4433 51.2216 21.3033 50.7596C21.1743 50.2976 20.9793 49.8266 20.8183 49.3546C20.4213 48.2686 19.9653 47.1876 19.4823 46.1076C20.2593 45.9216 23.0113 45.2196 24.1163 44.3716C25.2163 43.5276 26.3823 42.1466 26.3723 40.6796C26.3623 39.2426 25.2043 37.9996 23.7153 38.1606C21.6493 38.3846 19.8553 41.6766 19.4803 43.4956C19.4563 43.6086 19.3343 44.9436 19.2813 45.6776C18.9853 45.0306 18.6943 44.3846 18.3743 43.7396C17.4503 41.8796 16.4573 40.0256 15.4753 38.1716C15.1743 37.6036 14.8813 37.0346 14.5853 36.4656C14.8623 36.4026 18.1513 35.6396 19.3883 34.6896C20.4883 33.8456 21.6543 32.4646 21.6443 30.9976C21.6343 29.5606 20.4763 28.3176 18.9873 28.4796C16.9203 28.7046 15.1273 31.9966 14.7523 33.8146C14.7243 33.9516 14.5503 35.8726 14.5303 36.3626C13.8793 35.1096 13.2423 33.8546 12.6653 32.5926C11.8663 30.8516 11.1773 29.0996 10.6363 27.3526C10.7653 27.3236 14.2013 26.5426 15.4693 25.5696C16.5693 24.7256 17.7363 23.3446 17.7253 21.8776C17.7153 20.4406 16.5573 19.1976 15.0683 19.3586C13.0013 19.5826 11.2083 22.8756 10.8333 24.6926C10.8083 24.8126 10.6753 26.2766 10.6273 26.9736C10.5623 26.9806 10.5743 26.9796 10.5093 26.9866C9.95233 25.1076 9.64833 23.2186 9.45233 21.4356C9.33633 20.4036 9.28335 19.4096 9.25335 18.4426C9.90835 18.3626 12.8963 17.9646 14.1343 17.2156C15.3203 16.4976 16.6313 15.2536 16.7823 13.7936C16.9293 12.3646 15.9153 11.0006 14.4183 10.9986C12.3393 10.9946 10.1953 14.0706 9.62335 15.8356C9.59235 15.9316 9.38334 16.9426 9.24234 17.6816C9.23534 17.2446 9.22035 16.7946 9.22235 16.3756C9.22535 14.8036 9.32434 13.3646 9.42334 12.0906C9.48534 11.3666 9.55535 10.7136 9.62735 10.1026C10.2293 9.68861 12.6333 7.99162 13.3723 6.77862C14.0943 5.59462 14.6844 3.88661 14.1454 2.52161C13.6174 1.18461 12.0893 0.442614 10.7593 1.12961C8.91233 2.08461 8.42733 5.80162 8.73233 7.63262C8.75833 7.79062 9.45633 10.2176 9.48733 10.1966C9.48733 10.1966 9.51634 10.1766 9.52334 10.1716C9.44234 10.7576 9.36233 11.3876 9.28833 12.0766C9.16233 13.3506 9.03034 14.7916 8.99334 16.3706C8.95234 17.9476 8.95235 19.6616 9.11435 21.4676C9.27535 23.2776 9.53635 25.1736 10.0583 27.0926C10.0643 27.1146 10.0733 27.1366 10.0793 27.1576C9.75234 26.6436 8.79034 25.2376 8.70434 25.1386C7.48934 23.7346 4.31832 21.7366 2.40432 22.5486C1.02532 23.1336 0.622327 24.7846 1.31433 26.0436C2.02133 27.3296 3.71332 27.9656 5.08532 28.1656C6.63232 28.3906 9.88933 27.4466 10.1473 27.3706C10.6613 29.1936 11.3363 31.0226 12.1223 32.8356C12.5703 33.8726 13.0533 34.9036 13.5513 35.9306C13.2543 35.4956 12.9853 35.1086 12.9423 35.0586C11.7273 33.6546 8.55533 31.6566 6.64233 32.4686C5.26333 33.0536 4.86033 34.7046 5.55233 35.9636C6.25933 37.2496 7.95133 37.8856 9.32333 38.0856C10.7153 38.2886 13.5074 37.5396 14.2444 37.3316C14.4394 37.7236 14.6294 38.1176 14.8264 38.5086C15.7694 40.3856 16.7183 42.2556 17.5933 44.1176C17.9023 44.7736 18.1814 45.4316 18.4644 46.0876C18.2004 45.7016 17.9744 45.3786 17.9344 45.3326C16.7204 43.9286 13.5483 41.9306 11.6343 42.7426C10.2553 43.3276 9.85234 44.9786 10.5443 46.2376C11.2513 47.5236 12.9433 48.1596 14.3153 48.3596C15.6433 48.5536 18.2273 47.8846 19.1033 47.6416C19.3723 48.3226 19.6423 49.0046 19.8723 49.6766C20.0193 50.1396 20.1924 50.5746 20.3134 51.0476C20.4433 51.5136 20.5723 51.9736 20.6993 52.4306C20.9123 53.3186 21.1373 54.2336 21.3233 55.1056C21.4573 55.7106 21.5733 56.2896 21.6933 56.8736C21.3943 56.2166 20.7803 54.9436 20.7173 54.8436C19.7293 53.2716 16.8974 50.8166 14.8824 51.3296C13.4314 51.6996 12.7823 53.2696 13.2753 54.6186C13.7793 55.9966 15.3553 56.8816 16.6813 57.2876C18.1413 57.7336 21.3733 57.3256 21.7763 57.2726C21.9703 58.2386 22.1493 59.1796 22.3043 60.0706C22.6483 62.0236 22.9083 63.7736 23.1073 65.2586H14.9173V82.4846H36.4503V65.2586H28.1243C28.6643 64.0596 29.2563 62.6966 29.8733 61.1866C30.2543 60.2616 30.6423 59.2656 31.0313 58.2396C31.4223 58.3216 34.6223 58.9716 36.1133 58.6346C37.4653 58.3286 39.1033 57.5636 39.7083 56.2276C40.3013 54.9186 39.7703 53.3046 38.3513 52.8276C36.3813 52.1656 33.3733 54.4036 32.2713 55.8966C32.2063 55.9846 31.6084 57.0196 31.2404 57.6786C31.3974 57.2586 31.5543 56.8526 31.7103 56.4176C32.0253 55.5606 32.3133 54.6956 32.6273 53.7666C32.7633 53.3126 32.9003 52.8536 33.0383 52.3906C33.1853 51.9346 33.2833 51.4336 33.4093 50.9506C33.6773 49.8256 33.8943 48.6726 34.0863 47.5056C34.8373 47.7796 37.5193 48.7126 38.9093 48.6146C40.2923 48.5176 42.0273 48.0096 42.8273 46.7796C43.6113 45.5756 43.3313 43.8996 42.0003 43.2136C40.1533 42.2606 36.8413 44.0176 35.5253 45.3266C35.4433 45.4076 34.6043 46.4536 34.1553 47.0366C34.2653 46.3346 34.3793 45.6346 34.4673 44.9196C34.7233 42.8586 34.9183 40.7646 35.1213 38.6766C35.1833 38.0366 35.2533 37.4006 35.3203 36.7626C35.5863 36.8626 38.7503 38.0406 40.3063 37.9316C41.6893 37.8346 43.4243 37.3266 44.2253 36.0966C45.0093 34.8926 44.7293 33.2166 43.3983 32.5306C41.5513 31.5776 38.2383 33.3346 36.9233 34.6436C36.8243 34.7426 35.6203 36.2486 35.3323 36.6466C35.4803 35.2426 35.6413 33.8446 35.8563 32.4726C36.1503 30.5796 36.5423 28.7386 37.0543 26.9826C37.1783 27.0296 40.4743 28.2736 42.0683 28.1616C43.4513 28.0646 45.1863 27.5566 45.9873 26.3266C46.7713 25.1226 46.4913 23.4466 45.1603 22.7606C43.3123 21.8076 40.0013 23.5646 38.6853 24.8736C38.5993 24.9596 37.6803 26.1056 37.2563 26.6616C37.1983 26.6316 37.2093 26.6366 37.1513 26.6066C37.7223 24.7326 38.5123 22.9896 39.3313 21.3936C39.8043 20.4686 40.3083 19.6106 40.8163 18.7876C41.4063 19.0826 44.1183 20.3996 45.5643 20.4566C46.9493 20.5116 48.7293 20.1976 49.6603 19.0636C50.5723 17.9526 50.4783 16.2566 49.2303 15.4276C47.4983 14.2776 44.0143 15.6596 42.5623 16.8166C42.4833 16.8796 41.7523 17.6076 41.2263 18.1456C41.4613 17.7776 41.6973 17.3936 41.9303 17.0446C42.7993 15.7346 43.6763 14.5896 44.4613 13.5806C44.9123 13.0106 45.3313 12.5046 45.7283 12.0346C46.4583 12.0216 49.3993 11.9326 50.6853 11.3286C51.9403 10.7396 53.3753 9.63962 53.6783 8.20362C53.9743 6.79762 53.1093 5.33461 51.6203 5.17461ZM28.7373 60.7026C27.9893 62.4246 27.2783 63.9516 26.6503 65.2536H24.4683C24.2313 63.7176 23.9223 61.8896 23.5143 59.8396C23.3213 58.8586 23.0963 57.8136 22.8543 56.7426C23.0973 56.6466 24.4753 56.0886 25.6963 55.4066C26.7603 56.5586 29.4864 57.9076 29.8394 58.0786C29.4684 58.9906 29.0993 59.8746 28.7373 60.7026Z" fill="#263238"/>
                </svg>