<svg width="112" height="144" viewBox="0 0 112 144" fill="none" xmlns="http://www.w3.org/2000/svg">
                <path d="M89.9414 143.046H0.525391V0.692627H111.235V143.046H95.7574" stroke="#263238" stroke-miterlimit="10"/>
                <path d="M107.22 5.85461H4.54039V137.884H107.22V5.85461Z" stroke="#263238" stroke-miterlimit="10"/>
                <path d="M25.1104 42.0186C26.8314 43.6126 28.7624 45.1576 30.9274 46.6266C54.1534 62.3866 93.5544 54.9216 106.825 77.3176" stroke="#263238" stroke-miterlimit="10"/>
                <path d="M11.4354 6.39661C11.4354 6.39661 8.73539 24.0956 22.2154 39.0836" stroke="#263238" stroke-miterlimit="10"/>
                <path d="M20.2334 79.1276C31.5624 73.1436 46.2324 68.8966 53.7394 81.0506C62.4494 95.1516 22.2184 120.037 22.2184 137.871" stroke="#263238" stroke-miterlimit="10"/>
                <path d="M4.79939 89.3456C4.79939 89.3456 9.96739 85.0306 17.1004 80.8696" stroke="#263238" stroke-miterlimit="10"/>
                <path d="M58.3014 6.39661C58.3014 6.39661 73.2324 29.6226 107.241 23.4006" stroke="#263238" stroke-miterlimit="10"/>
                <path d="M62.7634 29.2076C62.8294 29.7516 62.8634 30.3046 62.8634 30.8666C62.8634 38.4256 56.7354 44.5536 49.1764 44.5536C41.6174 44.5536 35.4894 38.4256 35.4894 30.8666C35.4894 23.3076 41.6174 17.1796 49.1764 17.1796C54.4244 17.1796 58.9824 20.1336 61.2794 24.4686" stroke="#263238" stroke-miterlimit="10"/>
                <path d="M96.8724 49.3226C96.8724 52.8726 93.9944 55.7506 90.4444 55.7506C86.8944 55.7506 84.0154 52.8726 84.0154 49.3226C84.0154 45.7726 86.8934 42.8936 90.4444 42.8936C93.9944 42.8946 96.8724 45.7726 96.8724 49.3226Z" stroke="#263238" stroke-miterlimit="10"/>
                <path d="M96.9564 92.6926C100.63 93.6516 103.995 95.3776 106.867 97.6896" stroke="#263238" stroke-miterlimit="10"/>
                <path d="M72.3194 137.962C67.0184 133.109 63.6934 126.132 63.6934 118.378C63.6934 103.718 75.5774 91.8336 90.2374 91.8336C90.7514 91.8336 91.2614 91.8486 91.7674 91.8766" stroke="#263238" stroke-miterlimit="10"/>
                </svg>