<svg width="50" height="50" viewBox="0 0 50 50" fill="none" xmlns="http://www.w3.org/2000/svg">
                    <path d="M7.90241 1.72414C6.26381 1.72414 4.69221 2.37507 3.53381 3.53364C2.37507 4.6923 1.72414 6.26372 1.72414 7.90233V14.9425C1.72414 15.4187 1.33823 15.8046 0.862069 15.8046C0.385911 15.8046 0 15.4187 0 14.9425V7.90233C0 5.80651 0.832435 3.79647 2.31445 2.31454C3.79647 0.832604 5.80651 0 7.90241 0H14.9424C15.4186 0 15.8045 0.385995 15.8045 0.862069C15.8045 1.33814 15.4186 1.72414 14.9424 1.72414H7.90241Z" fill="#318B11"/>
                    <path d="M34.1955 0.862069C34.1955 0.385995 34.5814 0 35.0576 0H42.0976C44.1935 0 46.2035 0.83252 47.6855 2.31454C49.1676 3.79647 50 5.80651 50 7.90233V14.9425C50 15.4187 49.6141 15.8046 49.1379 15.8046C48.6618 15.8046 48.2759 15.4187 48.2759 14.9425V7.90233C48.2759 6.26372 47.6249 4.6923 46.4662 3.53364C45.3078 2.37507 43.7362 1.72414 42.0976 1.72414H35.0576C34.5814 1.72414 34.1955 1.33814 34.1955 0.862069Z" fill="#318B11"/>
                    <path d="M0.862069 34.1954C1.33823 34.1954 1.72414 34.5813 1.72414 35.0575V42.0977C1.72414 43.7363 2.37507 45.3077 3.53381 46.4664C4.69221 47.6249 6.26381 48.2759 7.90241 48.2759H14.9424C15.4186 48.2759 15.8045 48.6619 15.8045 49.1379C15.8045 49.614 15.4186 50 14.9424 50H7.90241C5.80651 50 3.79647 49.1675 2.31445 47.6855C0.832435 46.2035 0 44.1935 0 42.0977V35.0575C0 34.5813 0.385911 34.1954 0.862069 34.1954Z" fill="#318B11"/>
                    <path d="M49.1379 34.1954C49.6141 34.1954 50 34.5813 50 35.0575V42.0977C50 44.1935 49.1676 46.2035 47.6855 47.6855C46.2035 49.1675 44.1935 50 42.0976 50H35.0576C34.5814 50 34.1955 49.614 34.1955 49.1379C34.1955 48.6619 34.5814 48.2759 35.0576 48.2759H42.0976C43.7362 48.2759 45.3078 47.6249 46.4662 46.4664C47.6249 45.3077 48.2759 43.7363 48.2759 42.0977V35.0575C48.2759 34.5813 48.6618 34.1954 49.1379 34.1954Z" fill="#318B11"/>
                    <path d="M12.464 22.8824C11.0766 22.8824 9.99327 22.6025 9.21437 22.0426C8.44356 21.4828 7.96067 20.6187 7.76603 19.4503C7.7337 19.0933 7.80678 18.8256 7.98525 18.647C8.07651 18.5557 8.18898 18.4878 8.32301 18.4431C8.45063 18.4006 8.59779 18.3793 8.76414 18.3793C9.10493 18.3793 9.35244 18.4605 9.50633 18.6227C9.66864 18.785 9.77842 19.0365 9.83499 19.3773C9.9569 19.9371 10.2165 20.3225 10.6139 20.5335C11.0197 20.7363 11.6362 20.8377 12.464 20.8377H15.9688C17.0158 20.8377 17.7256 20.6511 18.0987 20.2779C18.4803 19.8965 18.6709 19.1906 18.6709 18.1603C18.6709 17.1136 18.4759 16.3996 18.0866 16.0182C17.697 15.6288 16.9912 15.4341 15.9688 15.4341H12.9506C11.4174 15.4341 10.2771 15.0609 9.53091 14.3144C8.79243 13.5598 8.42336 12.4158 8.42336 10.8824C8.42336 9.35698 8.78839 8.22518 9.51879 7.48678C10.2569 6.74847 11.3928 6.37931 12.9263 6.37931H15.823C17.1131 6.37931 18.123 6.64298 18.8534 7.17041C19.5915 7.69775 20.0583 8.5051 20.2529 9.59229C20.3017 9.94115 20.2367 10.209 20.0583 10.3955C19.8798 10.5741 19.6121 10.6633 19.2551 10.6633C18.9305 10.6633 18.687 10.5781 18.5247 10.4077C18.3624 10.2373 18.257 9.9899 18.2082 9.66527C18.0785 9.18659 17.831 8.86205 17.466 8.69166C17.101 8.51318 16.5531 8.42395 15.823 8.42395H12.9263C11.9528 8.42395 11.2995 8.59838 10.9668 8.94725C10.6344 9.28804 10.4681 9.93307 10.4681 10.8824C10.4681 11.8397 10.6385 12.497 10.9793 12.8539C11.3197 13.211 11.977 13.3894 12.9506 13.3894H15.9688C17.5674 13.3894 18.7561 13.7789 19.535 14.5578C20.3219 15.3367 20.7152 16.5375 20.7152 18.1603C20.7152 19.7749 20.326 20.9676 19.5471 21.7384C18.7682 22.501 17.5754 22.8824 15.9688 22.8824H12.464Z" fill="#318B11"/>
                    <path d="M31.2837 42.7323C32.0626 43.2921 33.1455 43.572 34.5329 43.572H38.0381C39.6447 43.572 40.8372 43.1907 41.6164 42.428C42.3953 41.6572 42.7845 40.4645 42.7845 38.8499C42.7845 37.2272 42.3909 36.0264 41.6039 35.2474C40.825 34.4685 39.6367 34.0791 38.0381 34.0791H35.0199C34.0463 34.0791 33.389 33.9006 33.0482 33.5436C32.7074 33.1866 32.537 32.5294 32.537 31.572C32.537 30.6227 32.7034 29.9777 33.0361 29.6369C33.3688 29.288 34.0218 29.1136 34.9956 29.1136H37.892C38.6224 29.1136 39.1699 29.2028 39.535 29.3813C39.9003 29.5517 40.1475 29.8762 40.2775 30.3549C40.3263 30.6796 40.4317 30.927 40.594 31.0974C40.7563 31.2678 40.9995 31.353 41.3241 31.353C41.4507 31.353 41.5662 31.3418 41.6703 31.3193C41.7369 31.3049 41.7989 31.2859 41.8565 31.2623C41.9006 31.2441 41.942 31.2232 41.9807 31.1996C42.035 31.1667 42.0838 31.1286 42.1272 31.0852C42.3057 30.8986 42.3707 30.6308 42.3222 30.2819C42.1272 29.1948 41.6608 28.3874 40.9223 27.8601C40.1923 27.3326 39.182 27.069 37.892 27.069H34.9956C33.4621 27.069 32.3262 27.4381 31.5878 28.1764C30.8577 28.9148 30.4923 30.0466 30.4923 31.572C30.4923 33.1055 30.8617 34.2495 31.5999 35.004C32.3464 35.7505 33.4863 36.1237 35.0199 36.1237H38.0381C39.0605 36.1237 39.7663 36.3184 40.1559 36.7079C40.5452 37.0893 40.7398 37.8032 40.7398 38.8499C40.7398 39.8803 40.5492 40.5862 40.168 40.9676C39.7946 41.3408 39.0847 41.5274 38.0381 41.5274H34.5329C33.7056 41.5274 33.089 41.4259 32.6832 41.2231C32.2855 41.0122 32.0259 40.6268 31.9043 40.0669C31.8474 39.7261 31.7379 39.4747 31.5756 39.3124C31.4214 39.1501 31.1739 39.069 30.8331 39.069C30.4923 39.069 30.2327 39.1582 30.0542 39.3367C29.8757 39.5153 29.8027 39.783 29.835 40.14C30.0296 41.3083 30.5129 42.1724 31.2837 42.7323Z" fill="#318B11"/>
                    <path d="M18.5496 27.069H10.4361C8.19572 27.069 6.37931 28.8853 6.37931 31.1257V39.2394C6.37931 41.4798 8.19572 43.2962 10.4361 43.2962H18.5496C20.7903 43.2962 22.6064 41.4798 22.6064 39.2394V31.1257C22.6064 28.8853 20.7903 27.069 18.5496 27.069Z" fill="#318B11"/>
                    <path d="M36.5618 6.37931C41.0429 6.37931 44.6754 10.0119 44.6754 14.4929C44.6754 18.9739 41.0429 22.6065 36.5618 22.6065C32.0808 22.6065 28.4483 18.9739 28.4483 14.4929C28.4483 10.0119 32.0808 6.37931 36.5618 6.37931Z" fill="#318B11"/>
                </svg>